<?xml version="1.0" encoding="utf-8"?>
<!-- Generator: Adobe Illustrator 19.0.0, SVG Export Plug-In . SVG Version: 6.00 Build 0)  -->
<svg version="1.1" id="Layer_1" xmlns="http://www.w3.org/2000/svg" xmlns:xlink="http://www.w3.org/1999/xlink" x="0px" y="0px"
	 viewBox="944 92 1398 475" style="enable-background:new 944 92 1398 475;" xml:space="preserve">
<style type="text/css">
	.st0{opacity:0.67;enable-background:new    ;}
	.st1{fill:url(#SVGID_1_);}
	.st2{fill:url(#SVGID_2_);}
	.st3{fill:url(#SVGID_3_);}
	.st4{fill:url(#SVGID_4_);}
	.st5{opacity:0.2;enable-background:new    ;}
	.st6{opacity:0.12;enable-background:new    ;}
	.st7{opacity:0.25;fill:#FFFFFF;enable-background:new    ;}
	.st8{opacity:0.6;}
</style>
<path class="st0" d="M1660.6,290.7c-25.4,0-46.1,19.3-46.1,45.9c0,26.5,20.7,45.9,46.1,45.9c25.4,0,46.1-19.4,46.1-45.9
	S1686,290.7,1660.6,290.7z M1660.6,364.5c-13.9,0-26-11.6-26-27.9c0-16.6,12-27.9,26-27.9c14,0,26,11.3,26,27.9
	C1686.4,353,1674.5,364.5,1660.6,364.5z M1784,301.1h-0.7c-4.5-5.4-13.2-10.3-24.2-10.3c-23,0-44,20.3-44,46.1
	c0,25.7,21.1,45.8,44,45.8c11,0,19.7-4.9,24.2-10.5h0.7v6.7c0,17.5-9.4,26.9-24.5,26.9c-12.4,0-20-8.8-23.1-16.3l-17.5,7.3
	c5,12.2,18.5,27.2,40.8,27.2c23.7,0,43.6-13.9,43.6-47.9v-82.5h-19.2L1784,301.1z M1760.9,364.5c-13.9,0-25.6-11.7-25.6-27.7
	c0-16.2,11.7-28,25.6-28c13.7,0,24.5,11.8,24.5,28S1774.6,364.5,1760.9,364.5z M1560,290.7c-25.4,0-46.1,19.3-46.1,45.9
	c0,26.5,20.7,45.9,46.1,45.9s46.1-19.4,46.1-45.9S1585.4,290.7,1560,290.7L1560,290.7z M1560,364.5c-13.9,0-26-11.6-26-27.9
	c0-16.6,12-27.9,26-27.9c13.9,0,26,11.3,26,27.9C1585.8,353,1573.9,364.5,1560,364.5z M1440.2,304.7v19.4h46.6
	c-1.4,11-5,19-10.6,24.6c-6.8,6.8-17.4,14.3-36,14.3c-28.7,0-51.1-23.1-51.1-51.8s22.4-51.8,51.1-51.8c15.5,0,26.8,6.1,35.2,13.9
	l13.7-13.7c-11.7-11.1-27.2-19.7-48.9-19.7c-39.3,0-72.5,32.1-72.5,71.4s33,71.4,72.5,71.4c21.2,0,37.2-6.9,49.8-20
	c12.9-12.9,16.9-31,16.9-45.5c0-4.5-0.4-8.7-1.1-12.2L1440.2,304.7z M1929.6,320.1c-3.8-10.3-15.5-29.2-39.3-29.2
	c-23.7,0-43.4,18.6-43.4,45.9c0,25.7,19.4,45.9,45.5,45.9c21.1,0,33.3-12.9,38.3-20.4l-15.6-10.5c-5.2,7.6-12.4,12.6-22.6,12.6
	s-17.5-4.8-22.3-13.9l61.4-25.4L1929.6,320.1z M1867.1,335.3c-0.5-17.8,13.7-26.8,24.1-26.8c8,0,14.8,3.9,17,9.8L1867.1,335.3z
	 M1817.1,379.9h20.1v-135h-20.1V379.9z M2024.2,244.9H1976v135h20.1v-51.1h28.1c22.3,0,44.3-16.2,44.3-42
	C2068.5,261.1,2046.5,244.9,2024.2,244.9z M2024.8,309.8h-28.7v-46.2h28.7c15.1,0,23.7,12.5,23.7,23.1
	C2048.4,297.3,2039.9,309.8,2024.8,309.8z M2079.7,379.9h20.1v-135h-20.1V379.9z M2149.3,290.5c-14.5,0-29.8,6.4-36,20.7l17.9,7.5
	c3.8-7.5,10.9-9.9,18.4-9.9c10.5,0,21.1,6.3,21.2,17.4v1.4c-3.7-2-11.4-5.2-21.1-5.2c-19.3,0-38.9,10.6-38.9,30.5
	c0,18.1,15.8,29.6,33.6,29.6c13.6,0,21.1-6.1,25.7-13.2h0.7v10.5h19.4v-51.8C2190.3,303.9,2172.4,290.5,2149.3,290.5L2149.3,290.5z
	 M2146.8,364.5c-6.7,0-15.8-3.3-15.8-11.4c0-10.5,11.4-14.4,21.3-14.4c8.8,0,13.1,1.9,18.4,4.5
	C2169.3,355.7,2158.5,364.5,2146.8,364.5L2146.8,364.5z M2261.2,293.4l-23.1,58.6h-0.7l-23.9-58.6h-21.8l35.9,81.8l-20.5,45.7h21.1
	l55.5-127.4h-22.4V293.4z"/>
<linearGradient id="SVGID_1_" gradientUnits="userSpaceOnUse" x1="1012.5848" y1="613.3455" x2="857.7275" y2="458.4882" gradientTransform="matrix(1.3594 0 0 -1.3594 -202.8891 1016.8843)">
	<stop  offset="0" style="stop-color:#00A0FF"/>
	<stop  offset="7.000001e-003" style="stop-color:#00A1FF"/>
	<stop  offset="0.26" style="stop-color:#00BEFF"/>
	<stop  offset="0.512" style="stop-color:#00D2FF"/>
	<stop  offset="0.76" style="stop-color:#00DFFF"/>
	<stop  offset="1" style="stop-color:#00E3FF"/>
</linearGradient>
<path class="st1" d="M1031.1,168.5c-3.7,3.8-5.9,9.9-5.9,17.6v277.4c0,7.7,2.2,13.7,5.9,17.6l0.9,0.9l155.4-155.4v-3.7L1032,167.4
	L1031.1,168.5z"/>
<linearGradient id="SVGID_2_" gradientUnits="userSpaceOnUse" x1="1123.6431" y1="509.2132" x2="900.371" y2="509.2132" gradientTransform="matrix(1.3594 0 0 -1.3594 -202.8891 1016.8843)">
	<stop  offset="0" style="stop-color:#FFE000"/>
	<stop  offset="0.409" style="stop-color:#FFBD00"/>
	<stop  offset="0.775" style="stop-color:#FFA500"/>
	<stop  offset="1" style="stop-color:#FF9C00"/>
</linearGradient>
<path class="st2" d="M1239.2,378.4l-51.7-51.9v-3.7l51.9-51.9l1.1,0.7l61.4,34.8c17.6,9.9,17.6,26.2,0,36.3l-61.4,34.8L1239.2,378.4
	z"/>
<linearGradient id="SVGID_3_" gradientUnits="userSpaceOnUse" x1="1040.5298" y1="487.9663" x2="830.5323" y2="277.9689" gradientTransform="matrix(1.3594 0 0 -1.3594 -202.8891 1016.8843)">
	<stop  offset="0" style="stop-color:#FF3A44"/>
	<stop  offset="1" style="stop-color:#C31162"/>
</linearGradient>
<path class="st3" d="M1240.5,377.6l-53-53L1031.1,481c5.7,6,15.4,7,26,0.7L1240.5,377.6z"/>
<linearGradient id="SVGID_4_" gradientUnits="userSpaceOnUse" x1="878.7789" y1="692.0762" x2="972.552" y2="598.303" gradientTransform="matrix(1.3594 0 0 -1.3594 -202.8891 1016.8843)">
	<stop  offset="0" style="stop-color:#32A071"/>
	<stop  offset="6.900000e-002" style="stop-color:#2DA771"/>
	<stop  offset="0.476" style="stop-color:#15CF74"/>
	<stop  offset="0.801" style="stop-color:#06E775"/>
	<stop  offset="1" style="stop-color:#00F076"/>
</linearGradient>
<path class="st4" d="M1240.5,271.9l-183.3-104.1c-10.8-6-20.3-5.3-26,0.7l156.4,156.4L1240.5,271.9z"/>
<path class="st5" d="M1239.2,376.5l-182,103.4c-10.3,5.9-19.2,5.5-25.1,0.2l-0.9,0.9l0.9,0.9c5.9,5.3,15,5.7,25.1-0.2l183.3-104.1
	L1239.2,376.5z"/>
<path class="st6" d="M1031.1,479.2c-3.7-3.8-5.9-9.9-5.9-17.6v1.8c0,7.7,2.2,13.7,5.9,17.6l0.9-0.9L1031.1,479.2z M1301.7,341
	l-62.5,35.6l1.1,1.1l61.4-34.8c8.8-4.9,13.2-11.5,13.2-18.1C1314.2,330.7,1309.8,336.4,1301.7,341z"/>
<path class="st7" d="M1057.2,169.4l244.5,138.9c7.9,4.6,12.5,10.3,13.2,16.3c0-6.6-4.4-13.2-13.2-18.1l-244.5-138.9
	c-17.6-9.9-31.9-1.6-31.9,18.3v1.8C1025.3,167.8,1039.6,159.5,1057.2,169.4z"/>
<g class="st8">
	<path d="M1428.7,164.8l-6.5,6.4c-4.1-4.4-8.9-6.5-14.4-6.5c-4.8,0-8.8,1.6-12,4.8c-3.2,3.2-4.8,7-4.8,11.6c0,4.7,1.7,8.7,5,11.9
		c3.4,3.3,7.5,4.9,12.4,4.9c3.2,0,5.9-0.7,8.1-2c2.2-1.3,4-3.4,5.3-6.3h-14.1v-8.7h24.5l0.1,2.1c0,4.3-1.1,8.3-3.3,12.1
		c-2.2,3.8-5.1,6.7-8.6,8.7s-7.6,3-12.3,3c-5,0-9.6-1.1-13.5-3.3c-4-2.2-7.1-5.3-9.4-9.4c-2.3-4.1-3.5-8.4-3.5-13.1
		c0-6.4,2.1-12,6.4-16.8c5-5.7,11.6-8.5,19.7-8.5c4.2,0,8.2,0.8,11.9,2.3C1422.7,159.4,1425.8,161.6,1428.7,164.8z"/>
	<path d="M1440.7,156.9h26.6v9.1h-17.4v8.8h17.4v8.9h-17.4v12.8h17.4v9.1h-26.6V156.9z"/>
	<path d="M1471.1,156.9h26.9v9.1h-8.9v39.5h-9.4V166h-8.6V156.9z"/>
	<path d="M1522.6,156.9h9.2v48.6h-9.2V156.9z"/>
	<path d="M1537.5,156.9h26.9v9.1h-8.9v39.5h-9.4V166h-8.6V156.9z"/>
	<path d="M1612.6,155.7c6.9,0,12.8,2.5,17.8,7.5c5,5,7.4,11.1,7.4,18.2c0,7.1-2.4,13.1-7.3,18s-10.8,7.4-17.8,7.4
		c-7.3,0-13.4-2.5-18.2-7.6c-4.8-5-7.2-11-7.2-18c0-4.7,1.1-8.9,3.4-12.8c2.3-3.9,5.3-7,9.3-9.3
		C1603.8,156.8,1608.1,155.7,1612.6,155.7z M1612.5,164.7c-4.5,0-8.3,1.6-11.4,4.7c-3.1,3.1-4.6,7.1-4.6,11.9
		c0,5.4,1.9,9.6,5.8,12.8c3,2.4,6.4,3.7,10.3,3.7c4.4,0,8.1-1.6,11.2-4.8c3.1-3.2,4.6-7.1,4.6-11.7c0-4.6-1.6-8.5-4.7-11.8
		C1620.8,166.3,1617,164.7,1612.5,164.7z"/>
	<path d="M1646.6,156.9h8.9l20.8,32v-32h9.3v48.6h-8.9l-20.8-31.9v31.9h-9.3V156.9z"/>
</g>
<g class="st8">
	<path d="M1398.7,437.4h9.4l18.7,48.6h-9.6l-3.8-10h-19.9l-4,10h-9.6L1398.7,437.4z M1403.4,450.3l-6.5,16.7h13L1403.4,450.3z"/>
	<path d="M1434,437.4h8.9l20.8,32v-32h9.3V486h-8.9l-20.8-31.9V486h-9.3V437.4z"/>
	<path d="M1528.9,445.3l-6.5,6.4c-4.1-4.4-8.9-6.5-14.4-6.5c-4.8,0-8.8,1.6-12,4.8c-3.2,3.2-4.8,7-4.8,11.6c0,4.7,1.7,8.7,5,11.9
		c3.4,3.3,7.5,4.9,12.4,4.9c3.2,0,5.9-0.7,8.1-2c2.2-1.3,4-3.4,5.3-6.3h-14.1v-8.7h24.5l0.1,2.1c0,4.3-1.1,8.3-3.3,12.1
		c-2.2,3.8-5.1,6.7-8.6,8.7s-7.6,3-12.3,3c-5,0-9.6-1.1-13.5-3.3c-4-2.2-7.1-5.3-9.4-9.4c-2.3-4.1-3.5-8.4-3.5-13.1
		c0-6.4,2.1-12,6.4-16.8c5-5.7,11.6-8.5,19.7-8.5c4.2,0,8.2,0.8,11.9,2.3C1522.9,439.8,1526,442.1,1528.9,445.3z"/>
	<path d="M1540.9,437.4h26.6v9.1h-17.4v8.8h17.4v8.9h-17.4v12.8h17.4v9.1h-26.6V437.4z"/>
	<path d="M1576.1,437.4h9.3v39.8h13.5v8.8h-22.8V437.4z"/>
	<path d="M1605.3,437.4h9.2V486h-9.2V437.4z"/>
	<path d="M1620.1,437.4h26.9v9.1h-8.9V486h-9.4v-39.5h-8.6V437.4z"/>
	<path d="M1668.1,437.4h9.4l18.7,48.6h-9.6l-3.8-10H1663l-4,10h-9.6L1668.1,437.4z M1672.9,450.3l-6.5,16.7h13L1672.9,450.3z"/>
	<path d="M1723,437.4h9.8c5.4,0,9.2,0.5,11.5,1.4s4.1,2.6,5.5,4.8c1.4,2.2,2.1,4.9,2.1,7.9c0,3.2-0.8,5.9-2.3,8
		c-1.5,2.1-3.8,3.8-6.9,4.9l11.5,21.6H1744l-10.9-20.6h-0.8V486h-9.3V437.4z M1732.2,456.4h2.9c2.9,0,5-0.4,6.1-1.2
		c1.1-0.8,1.7-2.1,1.7-3.8c0-1.1-0.3-2-0.8-2.8c-0.5-0.8-1.3-1.3-2.2-1.7c-0.9-0.3-2.6-0.5-5.1-0.5h-2.5V456.4z"/>
	<path d="M1761.7,437.4h26.6v9.1h-17.4v8.8h17.4v8.9h-17.4v12.8h17.4v9.1h-26.6V437.4z"/>
	<path d="M1796.9,437.4h8.9l20.8,32v-32h9.3V486h-8.9l-20.8-31.9V486h-9.3V437.4z"/>
	<path d="M1842.2,437.4h26.9v9.1h-8.9V486h-9.4v-39.5h-8.6V437.4z"/>
	<path d="M1920.1,445.9l-6.5,6.2c-4.4-4.7-9.4-7-14.9-7c-4.6,0-8.6,1.6-11.7,4.8s-4.8,7.1-4.8,11.8c0,3.2,0.7,6.1,2.1,8.6
		c1.4,2.5,3.4,4.5,6,5.9c2.6,1.4,5.4,2.2,8.6,2.2c2.7,0,5.1-0.5,7.4-1.5c2.2-1,4.7-2.8,7.3-5.5l6.3,6.6c-3.6,3.5-7,5.9-10.2,7.3
		c-3.2,1.4-6.8,2-10.9,2c-7.6,0-13.8-2.4-18.6-7.2c-4.8-4.8-7.2-10.9-7.2-18.4c0-4.8,1.1-9.2,3.3-12.9c2.2-3.8,5.3-6.8,9.4-9.1
		c4.1-2.3,8.5-3.4,13.2-3.4c4,0,7.9,0.8,11.6,2.5C1914.2,440.4,1917.4,442.8,1920.1,445.9z"/>
	<path d="M1943.1,437.4h9.4l18.7,48.6h-9.6l-3.8-10h-19.9l-4,10h-9.6L1943.1,437.4z M1947.8,450.3l-6.5,16.7h13L1947.8,450.3z"/>
	<path d="M1979,437.4h9.8c5.4,0,9.2,0.5,11.5,1.4s4.1,2.6,5.5,4.8c1.4,2.2,2.1,4.9,2.1,7.9c0,3.2-0.8,5.9-2.3,8
		c-1.5,2.1-3.8,3.8-6.9,4.9l11.5,21.6H2000l-10.9-20.6h-0.8V486h-9.3V437.4z M1988.2,456.4h2.9c2.9,0,5-0.4,6.1-1.2
		c1.1-0.8,1.7-2.1,1.7-3.8c0-1.1-0.3-2-0.8-2.8c-0.5-0.8-1.3-1.3-2.2-1.7c-0.9-0.3-2.6-0.5-5.1-0.5h-2.5V456.4z"/>
</g>
</svg>
